<svg xmlns="http://www.w3.org/2000/svg" width="13.5" height="15" viewBox="0 0 13.5 15"><defs><style>.a{fill:#222;fill-rule:evenodd;}</style></defs><path class="a" d="M1489.25,124.25h-10.5v-3a.753.753,0,0,1,.75-.75h.75v.75a.75.75,0,0,0,1.5,0v-.75h4.5v.75a.75.75,0,0,0,1.5,0v-.75h.75a.753.753,0,0,1,.75.75Zm-2.25,4.5h-3a.75.75,0,0,1,0-1.5h3a.75.75,0,0,1,0,1.5Zm-6,0a.75.75,0,1,1,.75-.75A.753.753,0,0,1,1481,128.75Zm7.5-9.75h-.75v-.75a.75.75,0,0,0-1.5,0V119h-4.5v-.75a.75.75,0,0,0-1.5,0V119h-.75a2.253,2.253,0,0,0-2.25,2.25v9a2.253,2.253,0,0,0,2.25,2.25h9a2.253,2.253,0,0,0,2.25-2.25v-9A2.253,2.253,0,0,0,1488.5,119Z" transform="translate(-1477.25 -117.5)"/></svg>