<svg xmlns="http://www.w3.org/2000/svg" width="15" height="10.5" viewBox="0 0 15 10.5"><defs><style>.a{fill:#222;fill-rule:evenodd;}</style></defs><path class="a" d="M1397.76,121.359a1.291,1.291,0,0,0-1.39.23l-1.62,1.5V122a2.253,2.253,0,0,0-2.25-2.25h-6.75a2.253,2.253,0,0,0-2.25,2.25v6a2.253,2.253,0,0,0,2.25,2.25h6.75a2.253,2.253,0,0,0,2.25-2.25v-1.089l1.62,1.5a1.276,1.276,0,0,0,.87.339,1.33,1.33,0,0,0,.52-.109,1.2,1.2,0,0,0,.74-1.113v-5.056A1.2,1.2,0,0,0,1397.76,121.359Z" transform="translate(-1383.5 -119.75)"/></svg>