<svg xmlns="http://www.w3.org/2000/svg" width="10.5" height="15" viewBox="0 0 10.5 15"><defs><style>.a{fill:#222;fill-rule:evenodd;}</style></defs><path class="a" d="M1425,124.25a3,3,0,0,1-6,0V120.5a3,3,0,0,1,6,0Zm1.5-.75a.753.753,0,0,1,.75.75,5.253,5.253,0,0,1-4.5,5.19V131h1.58a.672.672,0,0,1,.67.671v.158a.672.672,0,0,1-.67.671h-4.66a.672.672,0,0,1-.67-.671v-.158a.672.672,0,0,1,.67-.671h1.58v-1.56a5.253,5.253,0,0,1-4.5-5.19.75.75,0,0,1,1.5,0,3.75,3.75,0,0,0,7.5,0A.753.753,0,0,1,1426.5,123.5Z" transform="translate(-1416.75 -117.5)"/></svg>