<svg xmlns="http://www.w3.org/2000/svg" width="15.002" height="15" viewBox="0 0 15.002 15"><defs><style>.a{fill:#222;fill-rule:evenodd;}</style></defs><path class="a" d="M1360,123.875a1.125,1.125,0,1,0,1.13,1.125A1.122,1.122,0,0,0,1360,123.875Zm0,3.75a2.625,2.625,0,1,1,2.63-2.625A2.622,2.622,0,0,1,1360,127.625Zm7.42-3.886-.59-1.891a1.718,1.718,0,0,0-.87-1.033,1.645,1.645,0,0,0-1.29-.1l-.26.085a1.289,1.289,0,0,1-1.19-.2l-.08-.061a1.341,1.341,0,0,1-.53-1.072l.01-.209a1.739,1.739,0,0,0-.52-1.256,1.663,1.663,0,0,0-1.19-.5l-1.91,0h-.01a1.73,1.73,0,0,0-1.71,1.744v.181a1.436,1.436,0,0,1-.55,1.133l-.1.073a1.427,1.427,0,0,1-1.33.223,1.609,1.609,0,0,0-1.26.087,1.671,1.671,0,0,0-.85,1l-.61,1.947a1.762,1.762,0,0,0,1.11,2.206l.13.041a1.368,1.368,0,0,1,.83.909l.05.126a1.551,1.551,0,0,1-.18,1.392,1.774,1.774,0,0,0,.37,2.412l1.55,1.181a1.694,1.694,0,0,0,1.02.345,1.749,1.749,0,0,0,.26-.019,1.691,1.691,0,0,0,1.13-.708l.18-.247a1.331,1.331,0,0,1,1.07-.575,1.288,1.288,0,0,1,1.12.583l.09.129a1.7,1.7,0,0,0,1.13.718,1.666,1.666,0,0,0,1.28-.321l1.55-1.167a1.778,1.778,0,0,0,.38-2.422l-.19-.281a1.46,1.46,0,0,1,.71-2.2l.15-.05A1.77,1.77,0,0,0,1367.42,123.739Z" transform="translate(-1352.497 -117.5)"/></svg>